<svg id="Layer_1" xmlns="http://www.w3.org/2000/svg" viewBox="0 0 48 48"><style>.st0<!-- -->{<!-- -->fill:#111<!-- -->}</style><path class="st0" d="M26.7 18.9h.7v1.4h-2.6v-4.2H26l-1.9-2.8-1.9 2.8h1.3v5.6h-2.6V20c.6-.4.9-1.3.5-1.9-.4-.6-1.2-.9-1.7-.5-.6.4-.9 1.3-.5 1.9.1.2.3.4.5.5v1.6c0 .7.6 1.4 1.3 1.4h2.6v1.6c-.2.1-.4.3-.5.5-.4.6-.2 1.6.5 1.9.6.4 1.4.2 1.7-.5.1-.2.2-.4.2-.7 0-.5-.3-.9-.7-1.1v-3h2.6c.7 0 1.3-.6 1.3-1.4v-1.4h.7V16h-2.6l-.1 2.9z"></path><path class="st0" d="M35.7 4.4H12.6C10.1 4.4 8 6.6 8 9.3v30.4c0 2.7 2 4.9 4.5 4.9h23.2c2.5 0 4.5-2.2 4.5-4.9V9.3c.2-2.7-2-4.9-4.5-4.9zm-3.1 38.8h-17v-5.3c0-.8.6-1.5 1.3-1.5h14.3c.8 0 1.3.6 1.3 1.5v5.3zm6.4-3.4c0 1.9-1.4 3.4-3.2 3.4H34v-5.3c0-1.7-1.3-2.9-2.7-2.9H17c-1.5 0-2.7 1.4-2.7 2.9v5.3h-1.6c-1.7 0-3.2-1.6-3.2-3.4V9.3c0-1.9 1.4-3.4 3.2-3.4h23.2c1.7 0 3.2 1.6 3.2 3.4v30.5z"></path></svg>